<?xml version="1.0" encoding="UTF-8" standalone="no"?>
<!-- Created with Inkscape (http://www.inkscape.org/) -->

<svg
   width="32"
   height="32"
   viewBox="0 0 8.4666664 8.4666666"
   version="1.1"
   id="svg2880"
   inkscape:version="1.4.2 (ebf0e940d0, 2025-05-08)"
   sodipodi:docname="crosshair_select.svg"
   inkscape:export-filename="assets/textures/crosshair_select.png"
   inkscape:export-xdpi="1665.371"
   inkscape:export-ydpi="1665.371"
   xmlns:inkscape="http://www.inkscape.org/namespaces/inkscape"
   xmlns:sodipodi="http://sodipodi.sourceforge.net/DTD/sodipodi-0.dtd"
   xmlns="http://www.w3.org/2000/svg"
   xmlns:svg="http://www.w3.org/2000/svg">
  <sodipodi:namedview
     id="namedview2882"
     pagecolor="#505050"
     bordercolor="#ffffff"
     borderopacity="1"
     inkscape:showpageshadow="0"
     inkscape:pageopacity="0"
     inkscape:pagecheckerboard="1"
     inkscape:deskcolor="#505050"
     inkscape:document-units="px"
     showgrid="false"
     inkscape:zoom="26.265486"
     inkscape:cx="12.849563"
     inkscape:cy="18.29397"
     inkscape:current-layer="layer1" />
  <defs
     id="defs2877" />
  <g
     inkscape:label="Layer 1"
     inkscape:groupmode="layer"
     id="layer1">
    <path
       d="m 4.1540809,1.3619584 c -0.2013574,0.0045 -0.4016061,0.02768 -0.5973795,0.07028 -1.7105996,0.375711 -2.73169349,2.496196 -1.9022094,4.050915 0.00203,0.0032 0.00393,0.0065 0.00568,0.0098 0.7159332,1.659501 3.1404599,2.16132 4.4591588,0.921907 0.00249,-0.0027 0.00509,-0.0053 0.0078,-0.0078 1.4126552,-1.12466 1.2714012,-3.591662 -0.265615,-4.544874 -0.00263,-0.0018 -0.0052,-0.0037 -0.0077,-0.0057 C 5.365077,1.5082144 4.7580088,1.3483284 4.1540809,1.3619584 Z M 4.2420548,1.863908 C 5.5513486,1.8639993 6.6171595,2.9279415 6.6172509,4.2372354 6.6174308,5.5467199 5.5515402,6.6104705 4.2420548,6.6105618 2.9323785,6.6107418 1.8690147,5.5469116 1.8691949,4.2372354 1.8692863,2.9277499 2.9325698,1.863728 4.2420548,1.863908 Z"
       style="fill:#ffffff;fill-opacity:1;stroke-width:0.264583;stroke-linecap:square;stroke-linejoin:round;paint-order:fill markers stroke"
       id="path24"
       sodipodi:nodetypes="cccccccccccccc" />
    <path
       d="m 4.146427,1.0945513 c -0.2182369,0.0049 -0.4360318,0.0323 -0.6485392,0.07855 -1.8895515,0.415015 -2.99252202,2.707432 -2.0779092,4.427637 0.7959555,1.829168 3.4083279,2.372804 4.8689537,1.011824 v -5.16e-4 -5.17e-4 -5.17e-4 -5.17e-4 C 7.8519915,5.3645303 7.7000475,2.6944273 6.0000603,1.6376703 5.4597353,1.2544363 4.7991953,1.0798183 4.146427,1.0945513 Z m 0.00568,0.265617 c 0.6039279,-0.01363 1.2109961,0.146256 1.6996383,0.494543 0.0025,0.00199 0.00507,0.00389 0.0077,0.0057 1.5370152,0.953212 1.6782702,3.420214 0.265617,4.544942 -0.00267,0.00249 -0.00524,0.00509 -0.0077,0.0078 -1.3186998,1.239413 -3.7432265,0.737594 -4.4591597,-0.921907 -0.00175,-0.00335 -0.00365,-0.00662 -0.00568,-0.0098 -0.82948402,-1.554719 0.1916099,-3.675204 1.9022095,-4.050915 0.1957734,-0.0426 0.3960221,-0.06577 0.5973795,-0.07028 z m 0.087949,0.451523 C 2.9027482,1.8115075 1.8168728,2.8981369 1.8167795,4.2354453 1.8165954,5.5729485 2.9025528,6.6593821 4.2400561,6.6591983 5.5773639,6.6591051 6.6659025,5.5727527 6.6657179,4.2354453 6.6656246,2.8983326 5.577169,1.8117845 4.240056,1.8116913 Z m 0,0.2433298 C 5.4451596,2.0551051 6.4203965,3.030341 6.4204805,4.2354453 6.4206458,5.4407268 5.4453379,6.4153081 4.2400561,6.4153921 3.0345972,6.4155574 2.0618517,5.4409041 2.0620176,4.2354453 2.0621017,3.0301637 3.0347746,2.0548549 4.240056,2.0550211 Z"
       style="baseline-shift:baseline;display:inline;overflow:visible;opacity:1;stroke:none;stroke-width:0.264583;stroke-linecap:square;stroke-linejoin:round;stroke-dasharray:none;paint-order:fill markers stroke;enable-background:accumulate;stop-color:#000000;stop-opacity:1"
       id="path23"
       sodipodi:nodetypes="cccccccccccccccccccccccccccccc" />
    <path
       style="fill:#80ff80;fill-opacity:1;fill-rule:evenodd;stroke:#000000;stroke-width:0.396874;stroke-linecap:butt;stroke-linejoin:round;stroke-dasharray:none;stroke-opacity:1;paint-order:stroke fill markers"
       d="M 3.6842556,0.72712976 C 2.9950897,1.4127978 4.3585848,2.9578958 3.6694186,3.6435638 c -0.6937562,0.690235 -2.2439019,-0.691998 -2.93590022,0 -0.2749643,0.274964 -0.2749643,0.891609 0,1.166573 0.68690562,0.686906 2.23118562,-0.690681 2.91429402,0 0.6836521,0.691232 -0.7158098,2.225203 -0.032158,2.916434 0.2814843,0.284605 0.9178261,0.283049 1.2008752,0 0.6874106,-0.68741 -0.6874106,-2.229024 0,-2.916434 0.6893956,-0.689394 2.2404563,0.694354 2.9248577,0 0.273001,-0.27697 0.2601284,-0.893573 -0.016843,-1.166573 -0.6903555,-0.68046 -2.2225894,0.685425 -2.9080152,0 -0.6874107,-0.68741 0.6874106,-2.229024 0,-2.91643404 -0.2668796,-0.266879 -0.8647169,-0.2662 -1.1322735,0 z"
       id="path3001"
       sodipodi:nodetypes="aaaaaaaaaaaaa" />
  </g>
</svg>
