<?xml version="1.0" encoding="UTF-8" standalone="no"?>
<!-- Created with Inkscape (http://www.inkscape.org/) -->

<svg
   width="32"
   height="32"
   viewBox="0 0 8.4666664 8.4666666"
   version="1.1"
   id="svg2880"
   inkscape:version="1.4.2 (ebf0e940d0, 2025-05-08)"
   sodipodi:docname="crosshair.svg"
   inkscape:export-filename="crosshair.png"
   inkscape:export-xdpi="104.08569"
   inkscape:export-ydpi="104.08569"
   xmlns:inkscape="http://www.inkscape.org/namespaces/inkscape"
   xmlns:sodipodi="http://sodipodi.sourceforge.net/DTD/sodipodi-0.dtd"
   xmlns="http://www.w3.org/2000/svg"
   xmlns:svg="http://www.w3.org/2000/svg">
  <sodipodi:namedview
     id="namedview2882"
     pagecolor="#505050"
     bordercolor="#ffffff"
     borderopacity="1"
     inkscape:showpageshadow="0"
     inkscape:pageopacity="0"
     inkscape:pagecheckerboard="1"
     inkscape:deskcolor="#505050"
     inkscape:document-units="px"
     showgrid="false"
     inkscape:zoom="26.265486"
     inkscape:cx="12.849563"
     inkscape:cy="18.29397"
     inkscape:current-layer="layer1" />
  <defs
     id="defs2877" />
  <g
     inkscape:label="Layer 1"
     inkscape:groupmode="layer"
     id="layer1">
    <path
       d="m 4.2279734,1.2989814 c -0.2013574,0.0045 -0.4016061,0.02768 -0.5973795,0.07028 -1.7105996,0.375711 -2.73169346,2.496196 -1.9022094,4.050915 0.00203,0.0032 0.00393,0.0065 0.00568,0.0098 0.7159332,1.659501 3.1404599,2.16132 4.4591588,0.921907 0.00249,-0.0027 0.00509,-0.0053 0.0078,-0.0078 1.4126552,-1.12466 1.2714012,-3.591662 -0.265615,-4.544874 -0.00263,-0.0018 -0.0052,-0.0037 -0.0077,-0.0057 C 5.4389695,1.4452374 4.8319013,1.2853514 4.2279734,1.2989814 Z M 4.3159473,1.800931 C 5.6252411,1.8010223 6.691052,2.8649645 6.6911434,4.1742584 6.6913233,5.4837429 5.6254327,6.5474935 4.3159473,6.5475848 3.006271,6.5477648 1.9429072,5.4839346 1.9430874,4.1742584 1.9431788,2.8647729 3.0064623,1.800751 4.3159473,1.800931 Z"
       style="fill:#ffffff;stroke-width:0.264583;stroke-linecap:square;stroke-linejoin:round;paint-order:fill markers stroke;fill-opacity:1"
       id="path24"
       sodipodi:nodetypes="cccccccccccccc" />
    <path
       d="m 4.222289,1.0333644 c -0.2182369,0.0049 -0.4360318,0.0323 -0.6485392,0.07855 -1.8895515,0.415015 -2.99252206,2.707432 -2.0779092,4.427637 0.7959555,1.829168 3.4083279,2.372804 4.8689537,1.011824 v -5.16e-4 -5.17e-4 -5.17e-4 -5.17e-4 C 7.9278535,5.3033434 7.7759095,2.6332404 6.0759223,1.5764834 5.5355973,1.1932494 4.8750573,1.0186314 4.222289,1.0333644 Z m 0.00568,0.265617 c 0.6039279,-0.01363 1.2109961,0.146256 1.6996383,0.494543 0.0025,0.00199 0.00507,0.00389 0.0077,0.0057 1.5370152,0.953212 1.6782702,3.420214 0.265617,4.544942 -0.00267,0.00249 -0.00524,0.00509 -0.0077,0.0078 -1.3186998,1.239413 -3.7432265,0.737594 -4.4591597,-0.921907 -0.00175,-0.00335 -0.00365,-0.00662 -0.00568,-0.0098 -0.82948406,-1.554719 0.1916099,-3.675204 1.9022095,-4.050915 0.1957734,-0.0426 0.3960221,-0.06577 0.5973795,-0.07028 z m 0.087949,0.451523 C 2.9786102,1.7503206 1.8927348,2.83695 1.8926415,4.1742584 1.8924574,5.5117616 2.9784148,6.5981952 4.3159181,6.5980114 5.6532259,6.5979182 6.7417645,5.5115658 6.7415799,4.1742584 6.7414866,2.8371457 5.653031,1.7505976 4.3159181,1.7505044 Z m 0,0.2433298 c 1.2051036,8.4e-5 2.1803405,0.9753199 2.1804245,2.1804242 C 6.4965078,5.3795399 5.5211999,6.3541212 4.3159181,6.3542052 3.1104592,6.3543705 2.1377137,5.3797172 2.1378796,4.1742584 2.1379637,2.9689768 3.1106366,1.993668 4.3159181,1.9938342 Z"
       style="baseline-shift:baseline;display:inline;overflow:visible;opacity:1;stroke:none;stroke-width:0.264583;stroke-linecap:square;stroke-linejoin:round;stroke-dasharray:none;paint-order:fill markers stroke;enable-background:accumulate;stop-color:#000000;stop-opacity:1"
       id="path23"
       sodipodi:nodetypes="cccccccccccccccccccccccccccccc" />
    <path
       style="fill:#80ff80;fill-opacity:1;fill-rule:evenodd;stroke:#000000;stroke-width:0.396874;stroke-linecap:butt;stroke-linejoin:round;stroke-dasharray:none;stroke-opacity:1;paint-order:stroke fill markers"
       d="M 3.6842556,0.72712976 C 2.9950897,1.4127978 4.3585848,2.9578958 3.6694186,3.6435638 c -0.6937562,0.690235 -2.2439019,-0.691998 -2.93590022,0 -0.2749643,0.274964 -0.2749643,0.891609 0,1.166573 0.68690562,0.686906 2.23118562,-0.690681 2.91429402,0 0.6836521,0.691232 -0.7158098,2.225203 -0.032158,2.916434 0.2814843,0.284605 0.9178261,0.283049 1.2008752,0 0.6874106,-0.68741 -0.6874106,-2.229024 0,-2.916434 0.6893956,-0.689394 2.2404563,0.694354 2.9248577,0 0.273001,-0.27697 0.2601284,-0.893573 -0.016843,-1.166573 -0.6903555,-0.68046 -2.2225894,0.685425 -2.9080152,0 -0.6874107,-0.68741 0.6874106,-2.229024 0,-2.91643404 -0.2668796,-0.266879 -0.8647169,-0.2662 -1.1322735,0 z"
       id="path3001"
       sodipodi:nodetypes="aaaaaaaaaaaaa" />
  </g>
</svg>
